<?xml version="1.0" encoding="utf-8"?>
<!-- Generator: Adobe Illustrator 19.0.0, SVG Export Plug-In . SVG Version: 6.00 Build 0)  -->
<!DOCTYPE svg PUBLIC "-//W3C//DTD SVG 1.1//EN" "http://www.w3.org/Graphics/SVG/1.1/DTD/svg11.dtd">
<svg version="1.1" id="Layer_1" xmlns="http://www.w3.org/2000/svg" xmlns:xlink="http://www.w3.org/1999/xlink" x="0px" y="0px"
	 viewBox="0 0 200 200" enable-background="new 0 0 200 200" xml:space="preserve">
<g id="XMLID_4_">
	<path id="XMLID_13_" fill="#231F20" d="M166,114.6c0-1-0.4-2-1.1-2.8l-16.3-16.3c-1.5-1.5-4-1.5-5.5,0l-17,17c0,0,0,0,0,0
		l-28.7,28.7c-7.5,7.5-19.6,7.5-27.1,0c-7.5-7.5-7.5-19.6,0-27.1L99,85.5c0,0,0,0,0,0l17-17c1.5-1.5,1.5-4,0-5.5L99.8,46.7
		c-1.5-1.5-4-1.5-5.5,0l-17,17c0,0,0,0,0,0L48.6,92.4c-9.4,9.4-14.6,22-14.6,35.3s5.2,25.9,14.6,35.3c9.4,9.4,22,14.6,35.3,14.6
		c13.4,0,25.9-5.2,35.3-14.6l28.7-28.7c0,0,0,0,0,0l17-17C165.6,116.6,166,115.6,166,114.6z M97,55l10.7,10.7L96.3,77.2L85.5,66.5
		L97,55z M145.1,126l-10.7-10.7l11.5-11.5l10.7,10.7L145.1,126z"/>
	<path id="XMLID_15_" fill="#231F20" d="M134.8,77.4c0.8,0.8,1.8,1.1,2.8,1.1s2-0.4,2.8-1.1l24.5-24.5c1.1-1.1,1.4-2.8,0.8-4.3
		c-0.6-1.5-2-2.4-3.6-2.4h-14.4l17.2-17.2c1.5-1.5,1.5-4,0-5.5c-1.5-1.5-4-1.5-5.5,0l-23.8,23.8c-1.1,1.1-1.4,2.8-0.8,4.3
		c0.6,1.5,2,2.4,3.6,2.4h14.4l-17.8,17.8C133.3,73.4,133.3,75.9,134.8,77.4z"/>
</g>
</svg>
