<?xml version="1.0" encoding="utf-8"?>
<!-- Generator: Adobe Illustrator 19.0.0, SVG Export Plug-In . SVG Version: 6.00 Build 0)  -->
<!DOCTYPE svg PUBLIC "-//W3C//DTD SVG 1.1//EN" "http://www.w3.org/Graphics/SVG/1.1/DTD/svg11.dtd">
<svg version="1.1" id="Layer_1" xmlns="http://www.w3.org/2000/svg" xmlns:xlink="http://www.w3.org/1999/xlink" x="0px" y="0px"
	 viewBox="0 0 200 200" enable-background="new 0 0 200 200" xml:space="preserve">
<g id="XMLID_6_">
	<path id="XMLID_39_" fill="#231F20" d="M116.8,157H82.5c-2.8,0-5.3-1.9-6-4.6c-1-4.1-5.1-18.2-13-27.2l-0.1-0.2
		c-6.6-8.6-10-19.3-9.5-30.2c1-23.4,19.4-42.3,42.8-43.9c13-0.9,25.3,3.5,34.7,12.3c9.3,8.7,14.7,21,14.7,33.7
		c0,10.3-3.3,20-9.6,28.1l-0.1,0.2c-8,9.1-12.4,23.3-13.5,27.4C122,155.1,119.6,157,116.8,157z M83.4,149.6h32.5
		c1.8-6.2,6.4-19.8,14.7-29.3c5.2-6.8,8-14.9,8-23.5c0-10.7-4.5-21-12.3-28.3c-7.9-7.4-18.3-11.1-29.2-10.3
		C77.8,59.5,62,75.7,61.2,95c-0.4,9.1,2.4,18.1,7.9,25.3C77.4,129.9,81.7,143.4,83.4,149.6z"/>
	<path id="XMLID_38_" fill="#231F20" d="M83.1,115.7c-0.9,0-1.9-0.4-2.6-1.1c-10.7-10.7-10.7-28.1,0-38.8c5.2-5.2,12.1-8,19.4-8
		c7.3,0,14.2,2.9,19.4,8c1.4,1.4,1.4,3.8,0,5.2c-1.4,1.4-3.8,1.4-5.2,0c-3.8-3.8-8.8-5.9-14.2-5.9c-5.4,0-10.4,2.1-14.2,5.9
		c-7.8,7.8-7.8,20.5,0,28.4c1.4,1.4,1.4,3.8,0,5.2C85,115.4,84,115.7,83.1,115.7z"/>
	<g id="XMLID_35_">
		<path id="XMLID_37_" fill="#231F20" d="M37.7,100.9H16.6c-2,0-3.7-1.6-3.7-3.7s1.6-3.7,3.7-3.7h21.2c2,0,3.7,1.6,3.7,3.7
			S39.8,100.9,37.7,100.9z"/>
		<path id="XMLID_36_" fill="#231F20" d="M183.4,100.9h-21.2c-2,0-3.7-1.6-3.7-3.7s1.6-3.7,3.7-3.7h21.2c2,0,3.7,1.6,3.7,3.7
			S185.5,100.9,183.4,100.9z"/>
	</g>
	<path id="XMLID_34_" fill="#231F20" d="M100,38.6c-2,0-3.7-1.6-3.7-3.7V13.8c0-2,1.6-3.7,3.7-3.7c2,0,3.7,1.6,3.7,3.7v21.2
		C103.7,37,102,38.6,100,38.6z"/>
	<path id="XMLID_33_" fill="#231F20" d="M122.5,169.8L122.5,169.8c0-2.6-2.1-4.6-4.6-4.6H80.8c-2.6,0-4.6,2.1-4.6,4.6v0
		c0,11.1,9,20.1,20.1,20.1h6.2C113.5,189.9,122.5,180.9,122.5,169.8z"/>
	<g id="XMLID_30_">
		<path id="XMLID_32_" fill="#231F20" d="M56,56.9c-0.9,0-1.9-0.4-2.6-1.1l-15-15c-1.4-1.4-1.4-3.8,0-5.2c1.4-1.4,3.8-1.4,5.2,0
			l15,15c1.4,1.4,1.4,3.8,0,5.2C57.9,56.5,56.9,56.9,56,56.9z"/>
		<path id="XMLID_31_" fill="#231F20" d="M159,159.9c-0.9,0-1.9-0.4-2.6-1.1l-15-15c-1.4-1.4-1.4-3.8,0-5.2c1.4-1.4,3.8-1.4,5.2,0
			l15,15c1.4,1.4,1.4,3.8,0,5.2C160.9,159.5,159.9,159.9,159,159.9z"/>
	</g>
	<g id="XMLID_26_">
		<path id="XMLID_29_" fill="#231F20" d="M41,159.9c-0.9,0-1.9-0.4-2.6-1.1c-1.4-1.4-1.4-3.8,0-5.2l15-15c1.4-1.4,3.8-1.4,5.2,0
			c1.4,1.4,1.4,3.8,0,5.2l-15,15C42.9,159.5,42,159.9,41,159.9z"/>
		<path id="XMLID_27_" fill="#231F20" d="M144,56.9c-0.9,0-1.9-0.4-2.6-1.1c-1.4-1.4-1.4-3.8,0-5.2l15-15c1.4-1.4,3.8-1.4,5.2,0
			c1.4,1.4,1.4,3.8,0,5.2l-15,15C145.9,56.5,145,56.9,144,56.9z"/>
	</g>
</g>
</svg>
