<?xml version="1.0" encoding="utf-8"?>
<!-- Generator: Adobe Illustrator 19.0.0, SVG Export Plug-In . SVG Version: 6.00 Build 0)  -->
<!DOCTYPE svg PUBLIC "-//W3C//DTD SVG 1.1//EN" "http://www.w3.org/Graphics/SVG/1.1/DTD/svg11.dtd">
<svg version="1.1" id="Layer_1" xmlns="http://www.w3.org/2000/svg" xmlns:xlink="http://www.w3.org/1999/xlink" x="0px" y="0px"
	 viewBox="0 0 200 200" enable-background="new 0 0 200 200" xml:space="preserve">
<g id="XMLID_2_">
	<path id="XMLID_16_" fill="#231F20" d="M53.4,52.1h84.1c2.2,0,3.9-1.8,3.9-3.9s-1.8-3.9-3.9-3.9H53.4c-2.2,0-3.9,1.8-3.9,3.9
		S51.3,52.1,53.4,52.1z"/>
	<path id="XMLID_19_" fill="#231F20" d="M53.4,67.4h84.1c2.2,0,3.9-1.8,3.9-3.9s-1.8-3.9-3.9-3.9H53.4c-2.2,0-3.9,1.8-3.9,3.9
		S51.3,67.4,53.4,67.4z"/>
	<path id="XMLID_20_" fill="#231F20" d="M53.4,82.7h84.1c2.2,0,3.9-1.8,3.9-3.9s-1.8-3.9-3.9-3.9H53.4c-2.2,0-3.9,1.8-3.9,3.9
		S51.3,82.7,53.4,82.7z"/>
	<path id="XMLID_21_" fill="#231F20" d="M53.4,98h84.1c2.2,0,3.9-1.8,3.9-3.9s-1.8-3.9-3.9-3.9H53.4c-2.2,0-3.9,1.8-3.9,3.9
		S51.3,98,53.4,98z"/>
	<path id="XMLID_22_" fill="#231F20" d="M101.1,105.4H53.4c-2.2,0-3.9,1.8-3.9,3.9s1.8,3.9,3.9,3.9h47.7c2.2,0,3.9-1.8,3.9-3.9
		S103.3,105.4,101.1,105.4z"/>
	<path id="XMLID_25_" fill="#231F20" d="M185.8,89.1l-8.9-8.9c-1.7-1.7-4.4-1.7-6.1,0L161,90V29.4c0-4.8-3.9-8.7-8.7-8.7H38.7
		c-4.8,0-8.7,3.9-8.7,8.7V167c0,4.8,3.9,8.7,8.7,8.7h113.6c4.8,0,8.7-3.9,8.7-8.7V120l24.8-24.8C187.4,93.5,187.4,90.8,185.8,89.1z
		 M153.1,167c0,0.5-0.4,0.9-0.9,0.9H38.7c-0.5,0-0.9-0.4-0.9-0.9V29.4c0-0.5,0.4-0.9,0.9-0.9h113.6c0.5,0,0.9,0.4,0.9,0.9v68.5
		l-33.4,33.4l15,15l18.4-18.4V167z"/>
	<polygon id="XMLID_26_" fill="#231F20" points="108.2,157.8 129.5,151.5 114.5,136.5 	"/>
</g>
</svg>
