<?xml version="1.0" encoding="utf-8"?>
<!-- Generator: Adobe Illustrator 19.0.0, SVG Export Plug-In . SVG Version: 6.00 Build 0)  -->
<!DOCTYPE svg PUBLIC "-//W3C//DTD SVG 1.1//EN" "http://www.w3.org/Graphics/SVG/1.1/DTD/svg11.dtd">
<svg version="1.1" id="Layer_1" xmlns="http://www.w3.org/2000/svg" xmlns:xlink="http://www.w3.org/1999/xlink" x="0px" y="0px"
	 viewBox="0 0 200 200" enable-background="new 0 0 200 200" xml:space="preserve">
<g id="XMLID_23_">
	<path id="XMLID_28_" fill="#231F20" d="M164.5,110.4h-22.9c-2.3,0-4.1,1.9-4.1,4.1v26.9c0,2.3,1.9,4.1,4.1,4.1h22.9
		c2.3,0,4.1-1.9,4.1-4.1v-26.9C168.7,112.3,166.8,110.4,164.5,110.4z M161.3,138.2h-16.4v-20.4h16.4V138.2z"/>
	<path id="XMLID_59_" fill="#231F20" d="M35.6,145.6h52c2.3,0,4.1-1.9,4.1-4.1V72.3c0-2.3-1.9-4.1-4.1-4.1h-52
		c-2.3,0-4.1,1.9-4.1,4.1v69.1C31.4,143.7,33.3,145.6,35.6,145.6z M38.8,75.5h45.6v62.7H38.8V75.5z"/>
	<path id="XMLID_80_" fill="#231F20" d="M184.2,33.8H15.8c-2.3,0-4.1,1.9-4.1,4.1v1.1v16.8v0.4v104.5c0,2.3,1.9,4.1,4.1,4.1h168.5
		c2.3,0,4.1-1.9,4.1-4.1V56.3v-0.4V39.1V38C188.4,35.7,186.5,33.8,184.2,33.8z M47.8,41.4c2,0,3.6,1.6,3.6,3.6s-1.6,3.6-3.6,3.6
		c-2,0-3.6-1.6-3.6-3.6S45.8,41.4,47.8,41.4z M35.4,41.4c2,0,3.6,1.6,3.6,3.6s-1.6,3.6-3.6,3.6c-2,0-3.6-1.6-3.6-3.6
		S33.4,41.4,35.4,41.4z M23,41.4c2,0,3.6,1.6,3.6,3.6S25,48.6,23,48.6S19.4,47,19.4,45S21,41.4,23,41.4z M181,56.3v101.3H19V56.3
		v-0.4h162V56.3z"/>
	<path id="XMLID_165_" fill="#231F20" d="M102.5,104h61.1c2.3,0,4.1-1.9,4.1-4.1V72.3c0-2.3-1.9-4.1-4.1-4.1h-61.1
		c-2.3,0-4.1,1.9-4.1,4.1v27.6C98.3,102.2,100.2,104,102.5,104z M105.7,75.5h54.6v21.2h-54.6V75.5z"/>
	<path id="XMLID_171_" fill="#231F20" d="M102.5,145.6h22.9c2.3,0,4.1-1.9,4.1-4.1v-26.9c0-2.3-1.9-4.1-4.1-4.1h-22.9
		c-2.3,0-4.1,1.9-4.1,4.1v26.9C98.3,143.7,100.2,145.6,102.5,145.6z M105.7,117.8h16.4v20.4h-16.4V117.8z"/>
</g>
</svg>
